<?xml version="1.0" encoding="utf-8"?>
<!-- Generator: Adobe Illustrator 23.0.2, SVG Export Plug-In . SVG Version: 6.00 Build 0)  -->
<svg version="1.1" id="Ebene_1" xmlns="http://www.w3.org/2000/svg" xmlns:xlink="http://www.w3.org/1999/xlink" x="0px" y="0px"
	 viewBox="0 0 1080 1520.4" style="enable-background:new 0 0 1080 1520.4;" xml:space="preserve">
<style type="text/css">
	.st0{fill:#FFFFFF;}
	.st1{fill:none;}
	.st2{enable-background:new    ;}
</style>
<polygon class="st0" points="934.6,494.5 554.6,299.7 554.6,689.3 "/>
<g>
	<rect x="14.5" y="414.9" class="st1" width="684.4" height="279.6"/>
</g>
<g class="st2">
	<path d="M46.4,570.7c0-8.3-3.6-38.1-10.8-89.3c-7.2-51.2-11.7-79.2-13.6-83.9c2.3-4.2,5.3-6.2,9.1-6.2c4,0,7.7,9,11.2,27
		c3.3,19.1,6.1,40.9,8.3,65.5l1.8,21.1c1,11.8,1.6,17.8,1.8,17.9l2.6-21.8l1.6-13.5c2.3-19.8,3.7-33.7,4.4-41.9
		c0.9-10.7,1.3-18.1,1.3-22.1v-4.9c0-1.9,0.7-3.7,2.1-5.5c1.4-1.7,2.9-2.6,4.7-2.6c6.2,0,9.4,2.6,9.4,7.8v3.9c0,9.9,1,20.5,3,31.8
		c2,11.4,4.9,24.9,8.7,40.7c2.4,9.2,4.9,20.4,7.3,33.5c0.5-5.7,2.2-19.6,4.9-41.6c2.8-20.1,4.8-37.2,6.1-51.4
		c1.3-14.1,1.9-27.3,1.9-39.6c0-4,0.7-6.8,2-8.5c1.3-1.6,3.8-2.5,7.4-2.5c2.1,0,3.9,0.6,5.6,1.9c1.6,1.3,2.5,3,2.5,5.1
		c0,1.9-0.9,3.9-2.6,6c0,12.5-1,27.1-2.9,43.8c-1.9,16.7-4.2,32.6-7,47.7c-2.8,14.7-5.1,30.5-7,47.5c-1.9,16.9-2.9,31.8-2.9,44.6
		c0,2.8-0.6,5-1.9,6.6c-1.3,1.6-3.2,2.5-5.9,2.5c-1.9,0-4.2-3.6-6.8-10.7c-3.3-9.9-7.4-29.6-12.2-59l-4.7-30.4l-2.3-16.9
		c-2.3,15.8-3.9,28.5-5.1,38.1c-1.1,9.6-2.2,21-3.2,34.2c-1.2,12.7-1.8,25.1-1.8,37.4c0,1.7-0.7,3.4-2.2,4.9
		c-1.5,1.6-3.2,2.3-5.1,2.3C49.6,590.4,46.4,583.9,46.4,570.7z"/>
	<path d="M164.7,587.1c-2.9-0.9-4.4-3.3-4.4-7.3V428.7c0-2.9-0.5-7.4-1.6-13.3c-1.2-5.4-1.8-9.8-1.8-13.3v-0.8
		c2.9-4.9,5.1-8,6.5-9.4c2.4,0,5.6-0.3,9.6-1c3.6-0.7,6.8-1,9.6-1c2.8,0,5.5,0.8,8.1,2.5c2.6,1.6,3.9,3.6,3.9,5.8
		c0,5.2-4,7.8-12,7.8H179c-1-0.2-2.3-0.3-3.6-0.3c-1.6,0-2.5,0.1-2.9,0.3c0,5.9,0.3,13,1,21.3l0.5,7.3l0.5,14.3
		c0,3.3-0.3,8.3-0.8,15.1l-0.5,14.6l3.6-0.8c3.5-1,6.3-1.6,8.6-1.6c1.9,0,3.6,0.7,5.2,2.2c1.6,1.5,2.3,3.2,2.3,5.1
		c0,2.1-0.7,3.9-2,5.6c-1.3,1.6-2.9,2.5-4.8,2.5l-3.1-0.3h-3.4c-2.6,0-4.4,0.6-5.5,1.8v80.3l14.6-0.8c9.9,0,14.8,2.3,14.8,6.8v1
		c-1,2.1-2.9,3.8-5.7,5.1c-2.8,1.3-5.5,2.1-8.1,2.5l-8.6,0.3h-8.1C170,588.4,167.2,587.9,164.7,587.1z"/>
	<path d="M224.8,578.7c0-4.2,2.6-6.2,7.8-6.2h3.1c0.7,0.2,1.5,0.3,2.3,0.3c1.4,0,2.4-0.4,3-1.3c0.6-0.9,0.9-2.4,0.9-4.7
		c0-14.7-0.9-34.8-2.6-60.3c-1.6-26.5-2.3-46.5-2.3-60.1c0-4.9,0.1-9.3,0.3-13.3l0.3-13.3c0-5.7-0.3-10.5-0.8-14.3
		c-1.9,0.7-3.9,1-6,1c-4,0-6-2.1-6-6.2c0-2.1,1.3-3.9,3.8-5.5c2.5-1.6,5.8-2.7,9.8-3.4c7.3-1.2,13.4-1.8,18.5-1.8
		c2.1,0,3.9,0.7,5.3,2.1c1.5,1.4,2.2,3,2.2,4.9c0,1.9-0.6,3.6-1.7,4.9c-1.1,1.4-2.6,2.1-4.3,2.1c-1,0-1.9-0.1-2.6-0.3h-2.1
		c-1.7,0-3,0.4-3.8,1.2c-0.8,0.8-1.2,2.2-1.2,4.3c0,18.4,1.1,43.7,3.4,75.9c2.1,33.8,3.1,59.2,3.1,76.2v9.9c1.2-0.2,2.9-0.3,5.2-0.3
		c7.3,0,10.9,3,10.9,9.1v1.6l-6.5,4.4c-0.2,0-0.7,0-1.6,0.1c-0.9,0.1-2.6,0.1-5.2,0.1c-5.9,0.3-9.5,0.5-10.9,0.5
		C232.2,586.5,224.8,583.9,224.8,578.7z"/>
	<path d="M311,584.8c-1.5-2.5-2.2-5.6-2.2-9.2c0-5.7,0.3-12.7,1-21.1l0.5-6.8l0.5-13.8c0-6.1-0.6-19.6-1.8-40.6
		c-1.2-21-1.8-34.5-1.8-40.6c0-0.5,0-1.5,0.1-3c0.1-1.5,0.1-3.8,0.1-6.9c0.2-3.5,0.3-7.7,0.3-12.7c0-12.7-0.9-20.7-2.6-24.2
		c-1,0-3.3,0.3-6.8,0.8l-7.3,0.5c-2.3,0-4.2-0.6-6-1.9c-1.7-1.3-2.6-3-2.6-5.1s2.1-3.9,6.2-5.5c6.1-2.1,16.4-3.6,30.9-4.4
		c5.9-0.3,9.4-0.5,10.7-0.5c2.1,0,4,0.7,5.7,2.1c1.7,1.4,2.6,3.1,2.6,5.2s-0.7,3.8-2.2,5.1c-1.5,1.3-3.3,2-5.6,2l-4.7-0.3
		c-1.4-0.2-2.9-0.3-4.7-0.3h-2.6c1.2,11.8,1.8,22.4,1.8,32l-0.3,16.6c-0.2,5-0.3,10.7-0.3,16.9c0,8.3,0.3,18.3,1,29.9
		c0.9,14.4,1.3,24.4,1.3,29.9c0,6.6,0.3,14.4,1,23.4c0.7,9.2,1,17,1,23.4c0,8.5-2.5,12.7-7.5,12.7
		C314.5,588.6,312.4,587.4,311,584.8z"/>
	<path d="M371.9,587.1c-2.9-0.9-4.4-3.3-4.4-7.3V428.7c0-2.9-0.5-7.4-1.6-13.3c-1.2-5.4-1.8-9.8-1.8-13.3v-0.8
		c2.9-4.9,5.1-8,6.5-9.4c2.4,0,5.6-0.3,9.6-1c3.6-0.7,6.8-1,9.6-1c2.8,0,5.5,0.8,8.1,2.5c2.6,1.6,3.9,3.6,3.9,5.8
		c0,5.2-4,7.8-12,7.8h-3.6c-1-0.2-2.3-0.3-3.6-0.3c-1.6,0-2.5,0.1-2.9,0.3c0,5.9,0.3,13,1,21.3l0.5,7.3l0.5,14.3
		c0,3.3-0.3,8.3-0.8,15.1l-0.5,14.6l3.6-0.8c3.5-1,6.3-1.6,8.6-1.6c1.9,0,3.6,0.7,5.2,2.2c1.6,1.5,2.3,3.2,2.3,5.1
		c0,2.1-0.7,3.9-2,5.6c-1.3,1.6-2.9,2.5-4.8,2.5l-3.1-0.3H387c-2.6,0-4.4,0.6-5.5,1.8v80.3l14.6-0.8c9.9,0,14.8,2.3,14.8,6.8v1
		c-1,2.1-2.9,3.8-5.7,5.1c-2.8,1.3-5.5,2.1-8.1,2.5l-8.6,0.3h-8.1C377.2,588.4,374.4,587.9,371.9,587.1z"/>
	<path d="M476.5,582.4v-0.8c-0.5-9.2-2.1-19.4-4.7-30.7c-2.6-11.3-6.4-24.9-11.4-40.8c-3.8-12-7-22.7-9.6-32.2v102.4
		c0,2.8-0.5,4.8-1.4,6.1c-1,1.3-2.8,1.9-5.6,1.9c-2.1,0-3.7-0.6-4.9-1.9c-1.2-1.3-1.8-3-1.8-5.1v-2.1l0.5-76.4
		c0.3-22.5,0.5-47.9,0.5-76.2v-32c0-2.1,0.4-3.5,1.3-4.3c0.9-0.8,2.7-1.2,5.5-1.2c4.3,0,8.3,0.8,12,2.5c3.6,1.6,6.8,3.9,9.4,6.9
		c5.4,6.1,8.8,13.3,10.4,21.8c0.7,3.5,1,7.5,1,12c0,2.6-0.2,5.5-0.7,8.6c-0.4,3.1-0.7,5.1-0.9,6c-0.3,1.7-1.1,4.3-2.3,7.8
		c-1.2,3.5-2,5.7-2.3,6.8l-3.1,7.3l-2.6,6.8c0.2,6.2,1.3,14.1,3.2,23.7c2,9.5,4.2,18.4,6.6,26.5c1.7,5.7,4.8,15.3,9.4,28.6l7.5,22.9
		v0.5c0,2.9-0.3,5.5-0.8,7.5c-0.5,2.8-2.3,4.2-5.5,4.2C482.8,589.4,479.6,587.1,476.5,582.4z M459,456l3.9-22.4
		c0.2-0.9,0.3-2.1,0.3-3.6c0-5-1-10.8-2.9-17.4c-1-3.1-2.4-5.8-4-7.9c-1.6-2.2-3.3-3.3-5.1-3.5l-0.5,26c-0.5,11.6-0.8,20.6-0.8,27
		c0,6.1,0.1,10.1,0.3,12C452.6,463.7,455.6,460.4,459,456z"/>
</g>
</svg>
