<?xml version="1.0" encoding="utf-8"?>
<!-- Generator: Adobe Illustrator 23.0.2, SVG Export Plug-In . SVG Version: 6.00 Build 0)  -->
<svg version="1.1" id="Ebene_1" xmlns="http://www.w3.org/2000/svg" xmlns:xlink="http://www.w3.org/1999/xlink" x="0px" y="0px"
	 viewBox="0 0 1080 1518.1" style="enable-background:new 0 0 1080 1518.1;" xml:space="preserve">
<style type="text/css">
	.st0{fill:#FFFFFF;}
	.st1{fill:none;}
	.st2{enable-background:new    ;}
</style>
<polygon class="st0" points="136,494.5 516,689.3 516,299.7 "/>
<g>
	<rect x="585.2" y="408.4" class="st1" width="684.4" height="279.6"/>
</g>
<g class="st2">
	<path d="M591.5,576.3c3.8-5.9,8.2-21.6,13.1-47.2c4.9-25.6,9.1-52,12.6-79.4c3.5-26.9,5.4-44.7,5.7-53.6l-9.4,0.8
		c-1.2,0.2-3,0.3-5.5,0.3c-9.4,0-14-2.7-14-8.1v-1.3l3.4-4.2v-0.3c2.1,0.7,4.6,1,7.5,1c2.8,0,6.8-0.5,12.2-1.6
		c6.1-0.9,10.1-1.3,12.2-1.3c2.1,0,3.8,0.7,5.1,2.2c1.3,1.5,2,3.2,2,5.3c0,45.6-9.6,105.6-28.9,180.2l5.7-0.3
		c2.2-0.3,4.9-0.5,8.1-0.5c9.2,0,13.8,2.6,13.8,7.8v1.3l-4.2,3.9l-15.9,0.5c-4.9,0.3-10.2,0.5-16.1,0.5
		C595.9,582.6,593.4,580.5,591.5,576.3z"/>
	<path d="M685.6,581.4c-3.3-1.8-6-4.5-8.1-7.9c-4.2-7.3-6.8-15.5-8.1-24.7c-1.2-8-1.8-17.5-1.8-28.6c-0.5-18.7-0.8-41.6-0.8-68.6
		l-0.3-20c-0.2-1-0.3-2.8-0.3-5.2c-0.3-6.6-0.5-10.6-0.5-12c1.6-3.6,3.4-5.5,5.5-5.5c2.1,0,3.9,1.6,5.6,4.7
		c1.6,3.1,2.5,6.5,2.5,10.1v70.7c0,6.9,0.6,16.1,1.8,27.6c1.2,14.2,1.8,23.4,1.8,27.6c0,12.8,5.5,19.2,16.4,19.2
		c12.5,0,18.7-46.6,18.7-139.9v-14.6V412c-0.2-0.5-0.3-1.2-0.3-2.1c0-2.1,0.5-3.6,1.4-4.5c1-1,2.8-1.4,5.6-1.4c2.3,0,4,0.7,5.3,2
		s2.1,2.8,2.5,4.5c0.2,1,0.3,3,0.3,6c0,2.8-0.3,7.2-0.8,13.3c-0.7,5-1,9.4-1,13c0,4-0.2,7.5-0.5,10.7l-0.5,10.9v2.1
		c0.2,0.7,0.3,1.5,0.3,2.3c0,77-11.2,115.4-33.5,115.4C692.6,584.1,688.9,583.2,685.6,581.4z"/>
	<path d="M797.9,572.2c-3.6-9-6.3-18.3-8.1-27.8l-1.8-8.8c-5-24.8-8.2-38.9-9.6-42.4h-3.1c0,5-0.1,9.6-0.3,13.8v14.3
		c0,23.2,1.6,41.3,4.9,54.3l-2.9,7h-7.3l-3.4-3.9l0.3-17.4c0-15.6-0.8-39.3-2.3-71c-1.4-33.8-2.1-57.5-2.1-71
		c0-8.3,2.9-12.5,8.6-12.5c9.4,0,17,2.4,23,7.3c6,4.9,9,11.6,9,20.3v18.2c0,2.6-0.4,5.6-1.3,9c-0.9,3.4-1.8,6.1-2.9,8.2l-4.9,9.4
		l-4.2,7.8l1.3,6.2l3.6,18.5c2.4,13.3,4.8,24.2,7,32.5c2.2,8.3,5,15.9,8.3,22.6l1.6,3.1c1.7,3.5,2.6,6.2,2.6,8.3
		c0,1.7-0.5,3.2-1.6,4.5s-2.4,2-4.2,2C804.5,584.6,801,580.5,797.9,572.2z M786.1,464.6c2.7-8.6,4-16.5,4-23.8
		c0-5.5-0.7-10.7-2.1-15.6c-0.9-2.8-2.3-4.9-4.3-6.4c-2-1.5-4.5-2.2-7.4-2.2l-0.5,1.3l-0.5,2.3l0.5,30.7c0.3,9,0.5,18.8,0.5,29.4
		C780.1,478.5,783.4,473.2,786.1,464.6z"/>
	<path d="M839.1,385.5c-1.8-1.9-2.7-4.1-2.7-6.5c0-2.6,1-4.9,3-6.9c2-2,4.3-3,6.9-3c2.4,0,4.5,1,6.4,3c1.8,2,2.7,4.2,2.7,6.6
		c0,2.8-1,5.1-2.9,6.9c-1.9,1.8-4.3,2.7-7.3,2.7C843,388.3,840.9,387.4,839.1,385.5z M856.1,581.4c-3.3-1.8-6-4.5-8.1-7.9
		c-4.2-7.3-6.8-15.5-8.1-24.7c-1.2-8-1.8-17.5-1.8-28.6c-0.5-18.7-0.8-41.6-0.8-68.6l-0.3-20c-0.2-1-0.3-2.8-0.3-5.2
		c-0.3-6.6-0.5-10.6-0.5-12c1.6-3.6,3.4-5.5,5.5-5.5c2.1,0,3.9,1.6,5.6,4.7c1.6,3.1,2.5,6.5,2.5,10.1v70.7c0,6.9,0.6,16.1,1.8,27.6
		c1.2,14.2,1.8,23.4,1.8,27.6c0,12.8,5.5,19.2,16.4,19.2c12.5,0,18.7-46.6,18.7-139.9v-14.6V412c-0.2-0.5-0.3-1.2-0.3-2.1
		c0-2.1,0.5-3.6,1.4-4.5c1-1,2.8-1.4,5.6-1.4c2.3,0,4,0.7,5.3,2s2.1,2.8,2.5,4.5c0.2,1,0.3,3,0.3,6c0,2.8-0.3,7.2-0.8,13.3
		c-0.7,5-1,9.4-1,13c0,4-0.2,7.5-0.5,10.7l-0.5,10.9v2.1c0.2,0.7,0.3,1.5,0.3,2.3c0,77-11.2,115.4-33.5,115.4
		C863.2,584.1,859.4,583.2,856.1,581.4z M881,386.8c-1.8-1.9-2.7-4.1-2.7-6.5c0-2.6,1-4.9,3-6.9c2-2,4.3-3,6.9-3c2.4,0,4.6,1,6.5,3
		c1.9,2,2.9,4.2,2.9,6.6c0,2.8-1,5.1-3,6.9c-2,1.8-4.5,2.7-7.4,2.7C884.8,389.6,882.8,388.7,881,386.8z"/>
	<path d="M956.1,582.2c-4.2-1.1-7.5-2.4-9.8-3.8c-11.6-7.5-17.4-27.8-17.4-61.1v-7v-8.1V496c0-6.9,0.1-13.1,0.3-18.6
		c0.2-5.5,0.5-11.4,1-17.8c0.5-6.8,1.3-12.3,2.3-16.5c1-4.2,2.8-9.1,5.2-14.4c2.1-5,4.6-8.9,7.7-11.7c3-2.8,7-5.1,11.8-7
		c4.3-1.9,9.7-2.9,16.1-2.9c2.6,0,4.6,0.6,6,1.8c1.4,1.2,2.1,2.8,2.1,4.7c0,1.7-0.6,3.3-1.7,4.7c-1.1,1.4-2.5,2.2-4,2.3h-12.2
		c-3.5,0-6.5,2.2-9.1,6.5c-2.6,4.3-4.4,10-5.5,16.9c-2.3,12.8-3.4,23.2-3.4,31.2v1.3l-0.5,25c-0.3,7.5-0.5,15.9-0.5,25.2
		c0,6.6,0.3,12,0.8,16.1c0.9,6.2,2.3,11.4,4.4,15.6c2.1,4.7,5.6,8.1,10.7,10.1c2.6,1,5.5,1.6,8.6,1.6c1.9,0,3.8-0.7,5.7-2.1
		c2.3,0,4.1,0.5,5.6,1.4c1.5,1,2.2,2.4,2.2,4.3c0,6.8-4.8,10.1-14.3,10.1C964.4,583.9,960.3,583.3,956.1,582.2z"/>
	<path d="M1054.5,571.6c-6.8-13-13.4-34.4-20-64.2c-1.9-8.1-3.5-15.7-4.7-22.6c-6.2,12.5-9.4,27.6-9.4,45.2v48.1c0,4-1.7,6-5.2,6
		c-2.6,0-4.7-0.7-6.4-2.2c-1.6-1.5-2.5-3.5-2.5-6.1V497c0-7.6,0.9-21.7,2.6-42.1c1.7-17.9,2.6-31.9,2.6-42.1
		c1.4-3.3,3.9-4.9,7.5-4.9c2.3,0,4.2,0.8,5.7,2.3c1.6,1.6,2.3,3.5,2.3,5.7v0.8c-2.3,3.8-3.4,19.6-3.4,47.3v9.4l9.6-19
		c5.9-12.3,11.4-22.9,16.6-31.7c4.9-8.7,8.4-13,10.7-13c2.8,0,5.2,0.6,7.2,1.8c2,1.2,3,2.9,3,5.2l-6.2,10.4
		c-13,21-20.3,33.1-21.8,36.4c0,2.9-0.1,5.5-0.3,7.8l-0.3,7.8c0,7.5,3,21.4,9,41.7c6,20.4,11,33.8,14.9,40.4l3.4,4.7
		c3.3,4.5,4.9,8.5,4.9,12c0,1.9-0.7,3.5-2.2,4.8c-1.5,1.3-3.2,2-5.1,2C1063.3,584.6,1059,580.3,1054.5,571.6z"/>
</g>
</svg>
